<svg xmlns="http://www.w3.org/2000/svg" width="20" height="20" viewBox="0 0 20 20" fill="none">
    <path d="M11.25 3.48333C11.02 3.48333 10.8334 3.29667 10.8334 3.06667V1.66667C10.8334 1.2075 10.4592 0.833333 10 0.833333C9.54087 0.833333 9.16671 1.2075 9.16671 1.66667V3.06667C9.16671 3.29667 8.98004 3.48333 8.75004 3.48333C8.52004 3.48333 8.33337 3.2975 8.33337 3.06667V1.66667C8.33337 0.7475 9.08087 0 10 0C10.9192 0 11.6667 0.7475 11.6667 1.66667V3.06667C11.6667 3.2975 11.48 3.48333 11.25 3.48333Z"
          fill="#CFCFCF"/>
    <path d="M10 20C8.39171 20 7.08337 18.6917 7.08337 17.0834C7.08337 16.8534 7.27004 16.6667 7.50004 16.6667C7.73004 16.6667 7.91671 16.8534 7.91671 17.0834C7.91671 18.2317 8.85171 19.1667 10 19.1667C11.1484 19.1667 12.0834 18.2317 12.0834 17.0834C12.0834 16.8534 12.27 16.6667 12.5 16.6667C12.73 16.6667 12.9167 16.8534 12.9167 17.0834C12.9167 18.6917 11.6084 20 10 20Z"
          fill="#CFCFCF"/>
    <path d="M17.0833 17.5H2.91663C2.22746 17.5 1.66663 16.9392 1.66663 16.25C1.66663 15.8842 1.82579 15.5383 2.10413 15.3C3.41746 14.19 4.16663 12.575 4.16663 10.865V8.33333C4.16663 5.11667 6.78329 2.5 9.99996 2.5C13.2166 2.5 15.8333 5.11667 15.8333 8.33333V10.865C15.8333 12.5758 16.5825 14.19 17.8891 15.2942C18.1741 15.5383 18.3333 15.8842 18.3333 16.25C18.3333 16.9392 17.7733 17.5 17.0833 17.5ZM9.99996 3.33333C7.24246 3.33333 4.99996 5.57583 4.99996 8.33333V10.865C4.99996 12.8217 4.14329 14.6675 2.64913 15.9308C2.55329 16.0125 2.49996 16.1283 2.49996 16.25C2.49996 16.48 2.68663 16.6667 2.91663 16.6667H17.0833C17.3133 16.6667 17.5 16.48 17.5 16.25C17.5 16.1283 17.4466 16.0125 17.3541 15.9333C15.8575 14.6675 15 12.8208 15 10.865V8.33333C15 5.57583 12.7575 3.33333 9.99996 3.33333Z"
          fill="#CFCFCF"/>
</svg>